G75*
G70*
%OFA0B0*%
%FSLAX24Y24*%
%IPPOS*%
%LPD*%
%AMOC8*
5,1,8,0,0,1.08239X$1,22.5*
%
%ADD10C,0.0000*%
D10*
X022002Y000141D02*
X022002Y015889D01*
X033026Y015889D01*
X033026Y000141D01*
X022002Y000141D01*
X026825Y001322D02*
X026827Y001374D01*
X026833Y001426D01*
X026843Y001477D01*
X026856Y001527D01*
X026874Y001577D01*
X026895Y001624D01*
X026919Y001670D01*
X026948Y001714D01*
X026979Y001756D01*
X027013Y001795D01*
X027050Y001832D01*
X027090Y001865D01*
X027133Y001896D01*
X027177Y001923D01*
X027223Y001947D01*
X027272Y001967D01*
X027321Y001983D01*
X027372Y001996D01*
X027423Y002005D01*
X027475Y002010D01*
X027527Y002011D01*
X027579Y002008D01*
X027631Y002001D01*
X027682Y001990D01*
X027732Y001976D01*
X027781Y001957D01*
X027828Y001935D01*
X027873Y001910D01*
X027917Y001881D01*
X027958Y001849D01*
X027997Y001814D01*
X028032Y001776D01*
X028065Y001735D01*
X028095Y001693D01*
X028121Y001648D01*
X028144Y001601D01*
X028163Y001552D01*
X028179Y001502D01*
X028191Y001452D01*
X028199Y001400D01*
X028203Y001348D01*
X028203Y001296D01*
X028199Y001244D01*
X028191Y001192D01*
X028179Y001142D01*
X028163Y001092D01*
X028144Y001043D01*
X028121Y000996D01*
X028095Y000951D01*
X028065Y000909D01*
X028032Y000868D01*
X027997Y000830D01*
X027958Y000795D01*
X027917Y000763D01*
X027873Y000734D01*
X027828Y000709D01*
X027781Y000687D01*
X027732Y000668D01*
X027682Y000654D01*
X027631Y000643D01*
X027579Y000636D01*
X027527Y000633D01*
X027475Y000634D01*
X027423Y000639D01*
X027372Y000648D01*
X027321Y000661D01*
X027272Y000677D01*
X027223Y000697D01*
X027177Y000721D01*
X027133Y000748D01*
X027090Y000779D01*
X027050Y000812D01*
X027013Y000849D01*
X026979Y000888D01*
X026948Y000930D01*
X026919Y000974D01*
X026895Y001020D01*
X026874Y001067D01*
X026856Y001117D01*
X026843Y001167D01*
X026833Y001218D01*
X026827Y001270D01*
X026825Y001322D01*
X026825Y014708D02*
X026827Y014760D01*
X026833Y014812D01*
X026843Y014863D01*
X026856Y014913D01*
X026874Y014963D01*
X026895Y015010D01*
X026919Y015056D01*
X026948Y015100D01*
X026979Y015142D01*
X027013Y015181D01*
X027050Y015218D01*
X027090Y015251D01*
X027133Y015282D01*
X027177Y015309D01*
X027223Y015333D01*
X027272Y015353D01*
X027321Y015369D01*
X027372Y015382D01*
X027423Y015391D01*
X027475Y015396D01*
X027527Y015397D01*
X027579Y015394D01*
X027631Y015387D01*
X027682Y015376D01*
X027732Y015362D01*
X027781Y015343D01*
X027828Y015321D01*
X027873Y015296D01*
X027917Y015267D01*
X027958Y015235D01*
X027997Y015200D01*
X028032Y015162D01*
X028065Y015121D01*
X028095Y015079D01*
X028121Y015034D01*
X028144Y014987D01*
X028163Y014938D01*
X028179Y014888D01*
X028191Y014838D01*
X028199Y014786D01*
X028203Y014734D01*
X028203Y014682D01*
X028199Y014630D01*
X028191Y014578D01*
X028179Y014528D01*
X028163Y014478D01*
X028144Y014429D01*
X028121Y014382D01*
X028095Y014337D01*
X028065Y014295D01*
X028032Y014254D01*
X027997Y014216D01*
X027958Y014181D01*
X027917Y014149D01*
X027873Y014120D01*
X027828Y014095D01*
X027781Y014073D01*
X027732Y014054D01*
X027682Y014040D01*
X027631Y014029D01*
X027579Y014022D01*
X027527Y014019D01*
X027475Y014020D01*
X027423Y014025D01*
X027372Y014034D01*
X027321Y014047D01*
X027272Y014063D01*
X027223Y014083D01*
X027177Y014107D01*
X027133Y014134D01*
X027090Y014165D01*
X027050Y014198D01*
X027013Y014235D01*
X026979Y014274D01*
X026948Y014316D01*
X026919Y014360D01*
X026895Y014406D01*
X026874Y014453D01*
X026856Y014503D01*
X026843Y014553D01*
X026833Y014604D01*
X026827Y014656D01*
X026825Y014708D01*
M02*
