G75*
G70*
%OFA0B0*%
%FSLAX24Y24*%
%IPPOS*%
%LPD*%
%AMOC8*
5,1,8,0,0,1.08239X$1,22.5*
%
%ADD10C,0.0200*%
%ADD11C,0.0160*%
%ADD12C,0.0020*%
D10*
X029402Y002020D02*
X029402Y002800D01*
X029793Y003191D01*
X030183Y001629D02*
X031744Y003191D01*
X031744Y001629D01*
X030183Y001629D02*
X029793Y001629D01*
X029402Y002020D01*
X029793Y013047D02*
X029402Y013437D01*
X029402Y014218D01*
X029793Y014608D01*
X030183Y013047D02*
X031744Y014608D01*
X031744Y013047D01*
X030183Y013047D02*
X029793Y013047D01*
D11*
X029089Y012346D02*
X032238Y012346D01*
X032238Y015495D01*
X029089Y015495D01*
X029089Y012346D01*
X029089Y004078D02*
X032238Y004078D01*
X032238Y000929D01*
X029089Y000929D01*
X029089Y004078D01*
D12*
X024541Y007098D02*
X024132Y007507D01*
X024128Y008519D01*
X024545Y008940D01*
X026214Y008936D01*
X026214Y008921D01*
X026608Y008527D01*
X026620Y007503D01*
X026218Y007102D01*
X025667Y007098D01*
X025793Y007366D01*
X025671Y007629D01*
X025931Y007629D01*
X026049Y007747D01*
X026045Y008299D01*
X025947Y008397D01*
X024837Y008397D01*
X024730Y008287D01*
X024730Y007740D01*
X024829Y007633D01*
X025029Y007637D01*
X025144Y007358D01*
X025029Y007098D01*
X024541Y007098D01*
X024535Y007104D02*
X025032Y007104D01*
X025040Y007123D02*
X024516Y007123D01*
X024498Y007141D02*
X025048Y007141D01*
X025056Y007159D02*
X024480Y007159D01*
X024462Y007177D02*
X025064Y007177D01*
X025072Y007195D02*
X024444Y007195D01*
X024425Y007214D02*
X025080Y007214D01*
X025088Y007232D02*
X024407Y007232D01*
X024389Y007250D02*
X025096Y007250D01*
X025104Y007268D02*
X024371Y007268D01*
X024352Y007287D02*
X025112Y007287D01*
X025120Y007305D02*
X024334Y007305D01*
X024316Y007323D02*
X025128Y007323D01*
X025136Y007341D02*
X024298Y007341D01*
X024280Y007360D02*
X025143Y007360D01*
X025135Y007378D02*
X024261Y007378D01*
X024243Y007396D02*
X025128Y007396D01*
X025121Y007414D02*
X024225Y007414D01*
X024207Y007432D02*
X025113Y007432D01*
X025106Y007451D02*
X024188Y007451D01*
X024170Y007469D02*
X025098Y007469D01*
X025091Y007487D02*
X024152Y007487D01*
X024134Y007505D02*
X025083Y007505D01*
X025076Y007524D02*
X024132Y007524D01*
X024132Y007542D02*
X025068Y007542D01*
X025061Y007560D02*
X024132Y007560D01*
X024131Y007578D02*
X025054Y007578D01*
X025046Y007596D02*
X024131Y007596D01*
X024131Y007615D02*
X025039Y007615D01*
X025031Y007633D02*
X024131Y007633D01*
X024131Y007651D02*
X024812Y007651D01*
X024795Y007669D02*
X024131Y007669D01*
X024131Y007688D02*
X024778Y007688D01*
X024761Y007706D02*
X024131Y007706D01*
X024131Y007724D02*
X024745Y007724D01*
X024730Y007742D02*
X024131Y007742D01*
X024131Y007761D02*
X024730Y007761D01*
X024730Y007779D02*
X024131Y007779D01*
X024131Y007797D02*
X024730Y007797D01*
X024730Y007815D02*
X024131Y007815D01*
X024131Y007833D02*
X024730Y007833D01*
X024730Y007852D02*
X024130Y007852D01*
X024130Y007870D02*
X024730Y007870D01*
X024730Y007888D02*
X024130Y007888D01*
X024130Y007906D02*
X024730Y007906D01*
X024730Y007925D02*
X024130Y007925D01*
X024130Y007943D02*
X024730Y007943D01*
X024730Y007961D02*
X024130Y007961D01*
X024130Y007979D02*
X024730Y007979D01*
X024730Y007998D02*
X024130Y007998D01*
X024130Y008016D02*
X024730Y008016D01*
X024730Y008034D02*
X024130Y008034D01*
X024130Y008052D02*
X024730Y008052D01*
X024730Y008070D02*
X024130Y008070D01*
X024130Y008089D02*
X024730Y008089D01*
X024730Y008107D02*
X024129Y008107D01*
X024129Y008125D02*
X024730Y008125D01*
X024730Y008143D02*
X024129Y008143D01*
X024129Y008162D02*
X024730Y008162D01*
X024730Y008180D02*
X024129Y008180D01*
X024129Y008198D02*
X024730Y008198D01*
X024730Y008216D02*
X024129Y008216D01*
X024129Y008234D02*
X024730Y008234D01*
X024730Y008253D02*
X024129Y008253D01*
X024129Y008271D02*
X024730Y008271D01*
X024733Y008289D02*
X024129Y008289D01*
X024129Y008307D02*
X024750Y008307D01*
X024768Y008326D02*
X024129Y008326D01*
X024129Y008344D02*
X024785Y008344D01*
X024803Y008362D02*
X024128Y008362D01*
X024128Y008380D02*
X024820Y008380D01*
X024406Y008800D02*
X026336Y008800D01*
X026317Y008818D02*
X024424Y008818D01*
X024442Y008836D02*
X026299Y008836D01*
X026281Y008854D02*
X024460Y008854D01*
X024478Y008872D02*
X026263Y008872D01*
X026244Y008891D02*
X024496Y008891D01*
X024514Y008909D02*
X026226Y008909D01*
X026214Y008927D02*
X024532Y008927D01*
X024388Y008781D02*
X026354Y008781D01*
X026372Y008763D02*
X024370Y008763D01*
X024352Y008745D02*
X026390Y008745D01*
X026408Y008727D02*
X024334Y008727D01*
X024316Y008708D02*
X026427Y008708D01*
X026445Y008690D02*
X024297Y008690D01*
X024279Y008672D02*
X026463Y008672D01*
X026481Y008654D02*
X024261Y008654D01*
X024243Y008636D02*
X026500Y008636D01*
X026518Y008617D02*
X024225Y008617D01*
X024207Y008599D02*
X026536Y008599D01*
X026554Y008581D02*
X024189Y008581D01*
X024171Y008563D02*
X026573Y008563D01*
X026591Y008544D02*
X024153Y008544D01*
X024135Y008526D02*
X026608Y008526D01*
X026608Y008508D02*
X024128Y008508D01*
X024128Y008490D02*
X026609Y008490D01*
X026609Y008471D02*
X024128Y008471D01*
X024128Y008453D02*
X026609Y008453D01*
X026609Y008435D02*
X024128Y008435D01*
X024128Y008417D02*
X026609Y008417D01*
X026610Y008399D02*
X024128Y008399D01*
X025678Y007615D02*
X026619Y007615D01*
X026619Y007633D02*
X025935Y007633D01*
X025953Y007651D02*
X026618Y007651D01*
X026618Y007669D02*
X025971Y007669D01*
X025989Y007688D02*
X026618Y007688D01*
X026618Y007706D02*
X026008Y007706D01*
X026026Y007724D02*
X026617Y007724D01*
X026617Y007742D02*
X026044Y007742D01*
X026049Y007761D02*
X026617Y007761D01*
X026617Y007779D02*
X026049Y007779D01*
X026049Y007797D02*
X026617Y007797D01*
X026616Y007815D02*
X026049Y007815D01*
X026049Y007833D02*
X026616Y007833D01*
X026616Y007852D02*
X026048Y007852D01*
X026048Y007870D02*
X026616Y007870D01*
X026616Y007888D02*
X026048Y007888D01*
X026048Y007906D02*
X026615Y007906D01*
X026615Y007925D02*
X026048Y007925D01*
X026048Y007943D02*
X026615Y007943D01*
X026615Y007961D02*
X026048Y007961D01*
X026047Y007979D02*
X026615Y007979D01*
X026614Y007998D02*
X026047Y007998D01*
X026047Y008016D02*
X026614Y008016D01*
X026614Y008034D02*
X026047Y008034D01*
X026047Y008052D02*
X026614Y008052D01*
X026613Y008070D02*
X026047Y008070D01*
X026047Y008089D02*
X026613Y008089D01*
X026613Y008107D02*
X026047Y008107D01*
X026046Y008125D02*
X026613Y008125D01*
X026613Y008143D02*
X026046Y008143D01*
X026046Y008162D02*
X026612Y008162D01*
X026612Y008180D02*
X026046Y008180D01*
X026046Y008198D02*
X026612Y008198D01*
X026612Y008216D02*
X026046Y008216D01*
X026046Y008234D02*
X026612Y008234D01*
X026611Y008253D02*
X026046Y008253D01*
X026045Y008271D02*
X026611Y008271D01*
X026611Y008289D02*
X026045Y008289D01*
X026036Y008307D02*
X026611Y008307D01*
X026611Y008326D02*
X026018Y008326D01*
X026000Y008344D02*
X026610Y008344D01*
X026610Y008362D02*
X025982Y008362D01*
X025963Y008380D02*
X026610Y008380D01*
X026619Y007596D02*
X025686Y007596D01*
X025695Y007578D02*
X026619Y007578D01*
X026619Y007560D02*
X025703Y007560D01*
X025712Y007542D02*
X026620Y007542D01*
X026620Y007524D02*
X025720Y007524D01*
X025729Y007505D02*
X026620Y007505D01*
X026604Y007487D02*
X025737Y007487D01*
X025745Y007469D02*
X026586Y007469D01*
X026567Y007451D02*
X025754Y007451D01*
X025762Y007432D02*
X026549Y007432D01*
X026531Y007414D02*
X025771Y007414D01*
X025779Y007396D02*
X026513Y007396D01*
X026494Y007378D02*
X025788Y007378D01*
X025790Y007360D02*
X026476Y007360D01*
X026458Y007341D02*
X025782Y007341D01*
X025773Y007323D02*
X026440Y007323D01*
X026422Y007305D02*
X025765Y007305D01*
X025756Y007287D02*
X026403Y007287D01*
X026385Y007268D02*
X025748Y007268D01*
X025739Y007250D02*
X026367Y007250D01*
X026349Y007232D02*
X025730Y007232D01*
X025722Y007214D02*
X026330Y007214D01*
X026312Y007195D02*
X025713Y007195D01*
X025705Y007177D02*
X026294Y007177D01*
X026276Y007159D02*
X025696Y007159D01*
X025687Y007141D02*
X026257Y007141D01*
X026239Y007123D02*
X025679Y007123D01*
X025670Y007104D02*
X026221Y007104D01*
M02*
