G75*
G70*
%OFA0B0*%
%FSLAX24Y24*%
%IPPOS*%
%LPD*%
%AMOC8*
5,1,8,0,0,1.08239X$1,22.5*
%
%ADD10C,0.0000*%
%ADD11R,0.1150X0.0500*%
%ADD12R,0.0650X0.1350*%
%ADD13R,0.0433X0.0394*%
%ADD14C,0.0290*%
%ADD15C,0.0160*%
%ADD16C,0.0070*%
D10*
X022002Y000141D02*
X022002Y015889D01*
X033026Y015889D01*
X033026Y000141D01*
X022002Y000141D01*
X026825Y001322D02*
X026827Y001374D01*
X026833Y001426D01*
X026843Y001477D01*
X026856Y001527D01*
X026874Y001577D01*
X026895Y001624D01*
X026919Y001670D01*
X026948Y001714D01*
X026979Y001756D01*
X027013Y001795D01*
X027050Y001832D01*
X027090Y001865D01*
X027133Y001896D01*
X027177Y001923D01*
X027223Y001947D01*
X027272Y001967D01*
X027321Y001983D01*
X027372Y001996D01*
X027423Y002005D01*
X027475Y002010D01*
X027527Y002011D01*
X027579Y002008D01*
X027631Y002001D01*
X027682Y001990D01*
X027732Y001976D01*
X027781Y001957D01*
X027828Y001935D01*
X027873Y001910D01*
X027917Y001881D01*
X027958Y001849D01*
X027997Y001814D01*
X028032Y001776D01*
X028065Y001735D01*
X028095Y001693D01*
X028121Y001648D01*
X028144Y001601D01*
X028163Y001552D01*
X028179Y001502D01*
X028191Y001452D01*
X028199Y001400D01*
X028203Y001348D01*
X028203Y001296D01*
X028199Y001244D01*
X028191Y001192D01*
X028179Y001142D01*
X028163Y001092D01*
X028144Y001043D01*
X028121Y000996D01*
X028095Y000951D01*
X028065Y000909D01*
X028032Y000868D01*
X027997Y000830D01*
X027958Y000795D01*
X027917Y000763D01*
X027873Y000734D01*
X027828Y000709D01*
X027781Y000687D01*
X027732Y000668D01*
X027682Y000654D01*
X027631Y000643D01*
X027579Y000636D01*
X027527Y000633D01*
X027475Y000634D01*
X027423Y000639D01*
X027372Y000648D01*
X027321Y000661D01*
X027272Y000677D01*
X027223Y000697D01*
X027177Y000721D01*
X027133Y000748D01*
X027090Y000779D01*
X027050Y000812D01*
X027013Y000849D01*
X026979Y000888D01*
X026948Y000930D01*
X026919Y000974D01*
X026895Y001020D01*
X026874Y001067D01*
X026856Y001117D01*
X026843Y001167D01*
X026833Y001218D01*
X026827Y001270D01*
X026825Y001322D01*
X026825Y014708D02*
X026827Y014760D01*
X026833Y014812D01*
X026843Y014863D01*
X026856Y014913D01*
X026874Y014963D01*
X026895Y015010D01*
X026919Y015056D01*
X026948Y015100D01*
X026979Y015142D01*
X027013Y015181D01*
X027050Y015218D01*
X027090Y015251D01*
X027133Y015282D01*
X027177Y015309D01*
X027223Y015333D01*
X027272Y015353D01*
X027321Y015369D01*
X027372Y015382D01*
X027423Y015391D01*
X027475Y015396D01*
X027527Y015397D01*
X027579Y015394D01*
X027631Y015387D01*
X027682Y015376D01*
X027732Y015362D01*
X027781Y015343D01*
X027828Y015321D01*
X027873Y015296D01*
X027917Y015267D01*
X027958Y015235D01*
X027997Y015200D01*
X028032Y015162D01*
X028065Y015121D01*
X028095Y015079D01*
X028121Y015034D01*
X028144Y014987D01*
X028163Y014938D01*
X028179Y014888D01*
X028191Y014838D01*
X028199Y014786D01*
X028203Y014734D01*
X028203Y014682D01*
X028199Y014630D01*
X028191Y014578D01*
X028179Y014528D01*
X028163Y014478D01*
X028144Y014429D01*
X028121Y014382D01*
X028095Y014337D01*
X028065Y014295D01*
X028032Y014254D01*
X027997Y014216D01*
X027958Y014181D01*
X027917Y014149D01*
X027873Y014120D01*
X027828Y014095D01*
X027781Y014073D01*
X027732Y014054D01*
X027682Y014040D01*
X027631Y014029D01*
X027579Y014022D01*
X027527Y014019D01*
X027475Y014020D01*
X027423Y014025D01*
X027372Y014034D01*
X027321Y014047D01*
X027272Y014063D01*
X027223Y014083D01*
X027177Y014107D01*
X027133Y014134D01*
X027090Y014165D01*
X027050Y014198D01*
X027013Y014235D01*
X026979Y014274D01*
X026948Y014316D01*
X026919Y014360D01*
X026895Y014406D01*
X026874Y014453D01*
X026856Y014503D01*
X026843Y014553D01*
X026833Y014604D01*
X026827Y014656D01*
X026825Y014708D01*
D11*
X027553Y013133D03*
X025730Y013133D03*
X025730Y011952D03*
X027553Y011952D03*
X027553Y010771D03*
X025730Y010771D03*
X027474Y009196D03*
X029297Y009196D03*
X029297Y008015D03*
X027474Y008015D03*
X027474Y006834D03*
X029297Y006834D03*
X027553Y005259D03*
X025730Y005259D03*
X025730Y004078D03*
X027553Y004078D03*
X027553Y002897D03*
X025730Y002897D03*
D12*
X023577Y001368D03*
X031451Y005305D03*
X023577Y006788D03*
X023577Y009242D03*
X031451Y010725D03*
X023577Y014662D03*
D13*
X024817Y008015D03*
X025486Y008015D03*
D14*
X023577Y008015D03*
X027907Y009984D03*
X029089Y009984D03*
X031451Y008015D03*
X030270Y007228D03*
X028695Y006047D03*
X024758Y005259D03*
X023577Y005653D03*
X024758Y004078D03*
X024758Y011952D03*
X024758Y012543D03*
X024758Y013133D03*
D15*
X024758Y012543D02*
X025730Y013133D01*
X025939Y011952D02*
X027120Y013133D01*
X027553Y013133D01*
X027553Y011952D02*
X027120Y011952D01*
X026648Y011480D01*
X026648Y008527D01*
X027159Y008015D01*
X027474Y008015D01*
X027120Y008015D01*
X026648Y007543D01*
X026648Y004551D01*
X027120Y004078D01*
X027553Y004078D01*
X025730Y004078D02*
X024758Y004078D01*
X025466Y005259D02*
X024915Y005810D01*
X023734Y005810D01*
X023577Y005653D01*
X025466Y005259D02*
X025730Y005259D01*
X027553Y005259D02*
X027553Y006755D01*
X027474Y006834D01*
X027907Y006834D01*
X029089Y008015D01*
X029297Y008015D01*
X031451Y008015D01*
X031648Y008606D02*
X032238Y008015D01*
X032238Y003684D01*
X031451Y002897D01*
X027553Y002897D01*
X028695Y006047D02*
X029089Y006047D01*
X029297Y006834D02*
X029876Y006834D01*
X030270Y007228D01*
X031648Y008606D02*
X028419Y008606D01*
X027829Y009196D01*
X027474Y009196D01*
X027474Y010692D01*
X027553Y010771D01*
X027907Y009984D02*
X029089Y009984D01*
X025939Y011952D02*
X025730Y011952D01*
X024758Y011952D01*
X024817Y008015D02*
X023577Y008015D01*
D16*
X023277Y008024D02*
X022187Y008024D01*
X022187Y008092D02*
X023284Y008092D01*
X023277Y008075D02*
X023277Y007955D01*
X022187Y007955D01*
X022187Y007886D02*
X023305Y007886D01*
X023322Y007845D02*
X023277Y007955D01*
X023322Y007845D02*
X023407Y007761D01*
X023517Y007715D01*
X023636Y007715D01*
X023747Y007761D01*
X023766Y007780D01*
X024445Y007780D01*
X024445Y007754D01*
X024536Y007663D01*
X025098Y007663D01*
X025166Y007731D01*
X025187Y007710D01*
X025217Y007692D01*
X025252Y007683D01*
X025451Y007683D01*
X025451Y007980D01*
X025521Y007980D01*
X025521Y007683D01*
X025720Y007683D01*
X025755Y007692D01*
X025786Y007710D01*
X025811Y007735D01*
X025828Y007766D01*
X025838Y007800D01*
X025838Y007980D01*
X025521Y007980D01*
X025521Y008050D01*
X025451Y008050D01*
X025451Y008347D01*
X025252Y008347D01*
X025217Y008338D01*
X025187Y008320D01*
X025166Y008299D01*
X025098Y008367D01*
X024536Y008367D01*
X024445Y008276D01*
X024445Y008250D01*
X023766Y008250D01*
X023747Y008269D01*
X023636Y008315D01*
X023517Y008315D01*
X023407Y008269D01*
X023322Y008185D01*
X023277Y008075D01*
X023312Y008161D02*
X022187Y008161D01*
X022187Y008229D02*
X023367Y008229D01*
X023475Y008298D02*
X022187Y008298D01*
X022187Y008366D02*
X024535Y008366D01*
X024467Y008298D02*
X023678Y008298D01*
X023966Y008412D02*
X023187Y008412D01*
X023097Y008503D01*
X023097Y009981D01*
X023187Y010072D01*
X023966Y010072D01*
X024057Y009981D01*
X024057Y008503D01*
X023966Y008412D01*
X023989Y008435D02*
X026413Y008435D01*
X026413Y008430D02*
X026550Y008292D01*
X026744Y008098D01*
X026744Y007972D01*
X026550Y007778D01*
X026413Y007640D01*
X026413Y005621D01*
X026369Y005664D01*
X025394Y005664D01*
X025150Y005908D01*
X025013Y006045D01*
X024053Y006045D01*
X024057Y006049D01*
X024057Y007527D01*
X023966Y007618D01*
X023187Y007618D01*
X023097Y007527D01*
X023097Y006049D01*
X023187Y005958D01*
X023550Y005958D01*
X023544Y005953D01*
X023517Y005953D01*
X023407Y005907D01*
X023322Y005823D01*
X023277Y005713D01*
X023277Y005593D01*
X023322Y005483D01*
X023407Y005399D01*
X023517Y005353D01*
X023636Y005353D01*
X023747Y005399D01*
X023831Y005483D01*
X023869Y005575D01*
X024818Y005575D01*
X025000Y005393D01*
X025000Y004945D01*
X025091Y004854D01*
X026369Y004854D01*
X026413Y004897D01*
X026413Y004648D01*
X026413Y004453D01*
X026823Y004043D01*
X026823Y003764D01*
X026914Y003673D01*
X028192Y003673D01*
X028283Y003764D01*
X028283Y004392D01*
X028192Y004483D01*
X027047Y004483D01*
X026883Y004648D01*
X026883Y004886D01*
X026914Y004854D01*
X028192Y004854D01*
X028283Y004945D01*
X028283Y005573D01*
X028192Y005664D01*
X027788Y005664D01*
X027788Y006429D01*
X028114Y006429D01*
X028204Y006520D01*
X028204Y006799D01*
X029016Y007610D01*
X029936Y007610D01*
X030027Y007701D01*
X030027Y007780D01*
X031261Y007780D01*
X031281Y007761D01*
X031391Y007715D01*
X031510Y007715D01*
X031621Y007761D01*
X031705Y007845D01*
X031751Y007955D01*
X031966Y007955D01*
X032003Y007918D02*
X032003Y003782D01*
X031353Y003132D01*
X028283Y003132D01*
X028283Y003211D01*
X028192Y003302D01*
X026914Y003302D01*
X026823Y003211D01*
X026823Y002583D01*
X026914Y002492D01*
X028192Y002492D01*
X028283Y002583D01*
X028283Y002662D01*
X031548Y002662D01*
X031686Y002800D01*
X032473Y003587D01*
X032473Y003782D01*
X032473Y008112D01*
X032335Y008250D01*
X031745Y008841D01*
X031550Y008841D01*
X029957Y008841D01*
X029980Y008863D01*
X029998Y008894D01*
X030007Y008928D01*
X030007Y009161D01*
X029332Y009161D01*
X029332Y009231D01*
X030007Y009231D01*
X030007Y009464D01*
X029998Y009498D01*
X029980Y009529D01*
X029955Y009554D01*
X029924Y009572D01*
X029890Y009581D01*
X029332Y009581D01*
X029332Y009231D01*
X029262Y009231D01*
X029262Y009161D01*
X028587Y009161D01*
X028587Y008928D01*
X028596Y008894D01*
X028614Y008863D01*
X028637Y008841D01*
X028517Y008841D01*
X028204Y009153D01*
X028204Y009510D01*
X028114Y009601D01*
X027709Y009601D01*
X027709Y009757D01*
X027737Y009729D01*
X027848Y009684D01*
X027967Y009684D01*
X028077Y009729D01*
X028097Y009749D01*
X028899Y009749D01*
X028919Y009729D01*
X029029Y009684D01*
X029148Y009684D01*
X029258Y009729D01*
X029343Y009814D01*
X029388Y009924D01*
X029388Y010043D01*
X029343Y010154D01*
X029258Y010238D01*
X029148Y010284D01*
X029029Y010284D01*
X028919Y010238D01*
X028899Y010219D01*
X028097Y010219D01*
X028077Y010238D01*
X027967Y010284D01*
X027848Y010284D01*
X027737Y010238D01*
X027709Y010210D01*
X027709Y010366D01*
X028192Y010366D01*
X028283Y010457D01*
X028283Y011085D01*
X028192Y011176D01*
X026914Y011176D01*
X026883Y011145D01*
X026883Y011382D01*
X030971Y011382D01*
X030971Y011314D02*
X026883Y011314D01*
X026883Y011382D02*
X027047Y011547D01*
X028192Y011547D01*
X028283Y011638D01*
X028283Y012266D01*
X028192Y012357D01*
X026914Y012357D01*
X026823Y012266D01*
X026823Y011987D01*
X026413Y011577D01*
X026413Y011382D01*
X022187Y011382D01*
X022187Y011314D02*
X026413Y011314D01*
X026413Y011382D02*
X026413Y011105D01*
X026388Y011129D01*
X026357Y011147D01*
X026323Y011156D01*
X025765Y011156D01*
X025765Y010806D01*
X025695Y010806D01*
X025695Y010736D01*
X025020Y010736D01*
X025020Y010503D01*
X025029Y010469D01*
X025047Y010438D01*
X025072Y010413D01*
X025103Y010395D01*
X025137Y010386D01*
X025695Y010386D01*
X025695Y010736D01*
X025765Y010736D01*
X025765Y010386D01*
X026323Y010386D01*
X026357Y010395D01*
X026388Y010413D01*
X026413Y010437D01*
X026413Y008430D01*
X026413Y008503D02*
X024057Y008503D01*
X024057Y008572D02*
X026413Y008572D01*
X026413Y008640D02*
X024057Y008640D01*
X024057Y008709D02*
X026413Y008709D01*
X026413Y008778D02*
X024057Y008778D01*
X024057Y008846D02*
X026413Y008846D01*
X026413Y008915D02*
X024057Y008915D01*
X024057Y008983D02*
X026413Y008983D01*
X026413Y009052D02*
X024057Y009052D01*
X024057Y009120D02*
X026413Y009120D01*
X026413Y009189D02*
X024057Y009189D01*
X024057Y009257D02*
X026413Y009257D01*
X026413Y009326D02*
X024057Y009326D01*
X024057Y009394D02*
X026413Y009394D01*
X026413Y009463D02*
X024057Y009463D01*
X024057Y009532D02*
X026413Y009532D01*
X026413Y009600D02*
X024057Y009600D01*
X024057Y009669D02*
X026413Y009669D01*
X026413Y009737D02*
X024057Y009737D01*
X024057Y009806D02*
X026413Y009806D01*
X026413Y009874D02*
X024057Y009874D01*
X024057Y009943D02*
X026413Y009943D01*
X026413Y010011D02*
X024027Y010011D01*
X023127Y010011D02*
X022187Y010011D01*
X022187Y009943D02*
X023097Y009943D01*
X023097Y009874D02*
X022187Y009874D01*
X022187Y009806D02*
X023097Y009806D01*
X023097Y009737D02*
X022187Y009737D01*
X022187Y009669D02*
X023097Y009669D01*
X023097Y009600D02*
X022187Y009600D01*
X022187Y009532D02*
X023097Y009532D01*
X023097Y009463D02*
X022187Y009463D01*
X022187Y009394D02*
X023097Y009394D01*
X023097Y009326D02*
X022187Y009326D01*
X022187Y009257D02*
X023097Y009257D01*
X023097Y009189D02*
X022187Y009189D01*
X022187Y009120D02*
X023097Y009120D01*
X023097Y009052D02*
X022187Y009052D01*
X022187Y008983D02*
X023097Y008983D01*
X023097Y008915D02*
X022187Y008915D01*
X022187Y008846D02*
X023097Y008846D01*
X023097Y008778D02*
X022187Y008778D01*
X022187Y008709D02*
X023097Y008709D01*
X023097Y008640D02*
X022187Y008640D01*
X022187Y008572D02*
X023097Y008572D01*
X023097Y008503D02*
X022187Y008503D01*
X022187Y008435D02*
X023165Y008435D01*
X023350Y007818D02*
X022187Y007818D01*
X022187Y007749D02*
X023434Y007749D01*
X023719Y007749D02*
X024450Y007749D01*
X024519Y007681D02*
X022187Y007681D01*
X022187Y007612D02*
X023182Y007612D01*
X023113Y007544D02*
X022187Y007544D01*
X022187Y007475D02*
X023097Y007475D01*
X023097Y007407D02*
X022187Y007407D01*
X022187Y007338D02*
X023097Y007338D01*
X023097Y007270D02*
X022187Y007270D01*
X022187Y007201D02*
X023097Y007201D01*
X023097Y007133D02*
X022187Y007133D01*
X022187Y007064D02*
X023097Y007064D01*
X023097Y006995D02*
X022187Y006995D01*
X022187Y006927D02*
X023097Y006927D01*
X023097Y006858D02*
X022187Y006858D01*
X022187Y006790D02*
X023097Y006790D01*
X023097Y006721D02*
X022187Y006721D01*
X022187Y006653D02*
X023097Y006653D01*
X023097Y006584D02*
X022187Y006584D01*
X022187Y006516D02*
X023097Y006516D01*
X023097Y006447D02*
X022187Y006447D01*
X022187Y006379D02*
X023097Y006379D01*
X023097Y006310D02*
X022187Y006310D01*
X022187Y006241D02*
X023097Y006241D01*
X023097Y006173D02*
X022187Y006173D01*
X022187Y006104D02*
X023097Y006104D01*
X023110Y006036D02*
X022187Y006036D01*
X022187Y005967D02*
X023178Y005967D01*
X023330Y005830D02*
X022187Y005830D01*
X022187Y005762D02*
X023297Y005762D01*
X023277Y005693D02*
X022187Y005693D01*
X022187Y005625D02*
X023277Y005625D01*
X023292Y005556D02*
X022187Y005556D01*
X022187Y005487D02*
X023320Y005487D01*
X023386Y005419D02*
X022187Y005419D01*
X022187Y005350D02*
X025000Y005350D01*
X025000Y005282D02*
X022187Y005282D01*
X022187Y005213D02*
X025000Y005213D01*
X025000Y005145D02*
X022187Y005145D01*
X022187Y005076D02*
X025000Y005076D01*
X025000Y005008D02*
X022187Y005008D01*
X022187Y004939D02*
X025006Y004939D01*
X025075Y004871D02*
X022187Y004871D01*
X022187Y004802D02*
X026413Y004802D01*
X026413Y004734D02*
X022187Y004734D01*
X022187Y004665D02*
X026413Y004665D01*
X026413Y004596D02*
X022187Y004596D01*
X022187Y004528D02*
X026413Y004528D01*
X026369Y004483D02*
X025091Y004483D01*
X025000Y004392D01*
X025000Y004313D01*
X024947Y004313D01*
X024928Y004332D01*
X024817Y004378D01*
X024698Y004378D01*
X024588Y004332D01*
X024503Y004248D01*
X024458Y004138D01*
X024458Y004018D01*
X024503Y003908D01*
X024588Y003824D01*
X024698Y003778D01*
X024817Y003778D01*
X024928Y003824D01*
X024947Y003843D01*
X025000Y003843D01*
X025000Y003764D01*
X025091Y003673D01*
X026369Y003673D01*
X026460Y003764D01*
X026460Y004392D01*
X026369Y004483D01*
X026393Y004459D02*
X026413Y004459D01*
X026460Y004391D02*
X026475Y004391D01*
X026460Y004322D02*
X026544Y004322D01*
X026612Y004254D02*
X026460Y004254D01*
X026460Y004185D02*
X026681Y004185D01*
X026749Y004117D02*
X026460Y004117D01*
X026460Y004048D02*
X026818Y004048D01*
X026823Y003980D02*
X026460Y003980D01*
X026460Y003911D02*
X026823Y003911D01*
X026823Y003842D02*
X026460Y003842D01*
X026460Y003774D02*
X026823Y003774D01*
X026882Y003705D02*
X026402Y003705D01*
X026323Y003282D02*
X025765Y003282D01*
X025765Y002932D01*
X025695Y002932D01*
X025695Y002862D01*
X025020Y002862D01*
X025020Y002629D01*
X025029Y002595D01*
X025047Y002564D01*
X025072Y002539D01*
X025103Y002521D01*
X025137Y002512D01*
X025695Y002512D01*
X025695Y002862D01*
X025765Y002862D01*
X025765Y002512D01*
X026323Y002512D01*
X026357Y002521D01*
X026388Y002539D01*
X026413Y002564D01*
X026431Y002595D01*
X026440Y002629D01*
X026440Y002862D01*
X025765Y002862D01*
X025765Y002932D01*
X026440Y002932D01*
X026440Y003165D01*
X026431Y003199D01*
X026413Y003230D01*
X026388Y003255D01*
X026357Y003273D01*
X026323Y003282D01*
X026416Y003226D02*
X026837Y003226D01*
X026823Y003157D02*
X026440Y003157D01*
X026440Y003088D02*
X026823Y003088D01*
X026823Y003020D02*
X026440Y003020D01*
X026440Y002951D02*
X026823Y002951D01*
X026823Y002883D02*
X025765Y002883D01*
X025765Y002951D02*
X025695Y002951D01*
X025695Y002932D02*
X025695Y003282D01*
X025137Y003282D01*
X025103Y003273D01*
X025072Y003255D01*
X025047Y003230D01*
X025029Y003199D01*
X025020Y003165D01*
X025020Y002932D01*
X025695Y002932D01*
X025695Y002883D02*
X022187Y002883D01*
X022187Y002951D02*
X025020Y002951D01*
X025020Y003020D02*
X022187Y003020D01*
X022187Y003088D02*
X025020Y003088D01*
X025020Y003157D02*
X022187Y003157D01*
X022187Y003226D02*
X025045Y003226D01*
X025695Y003226D02*
X025765Y003226D01*
X025765Y003157D02*
X025695Y003157D01*
X025695Y003088D02*
X025765Y003088D01*
X025765Y003020D02*
X025695Y003020D01*
X025695Y002814D02*
X025765Y002814D01*
X025765Y002746D02*
X025695Y002746D01*
X025695Y002677D02*
X025765Y002677D01*
X025765Y002609D02*
X025695Y002609D01*
X025695Y002540D02*
X025765Y002540D01*
X026389Y002540D02*
X026866Y002540D01*
X026823Y002609D02*
X026435Y002609D01*
X026440Y002677D02*
X026823Y002677D01*
X026823Y002746D02*
X026440Y002746D01*
X026440Y002814D02*
X026823Y002814D01*
X026906Y003294D02*
X022187Y003294D01*
X022187Y003363D02*
X031584Y003363D01*
X031653Y003431D02*
X022187Y003431D01*
X022187Y003500D02*
X031721Y003500D01*
X031790Y003568D02*
X022187Y003568D01*
X022187Y003637D02*
X031858Y003637D01*
X031927Y003705D02*
X028224Y003705D01*
X028283Y003774D02*
X031995Y003774D01*
X032003Y003842D02*
X028283Y003842D01*
X028283Y003911D02*
X032003Y003911D01*
X032003Y003980D02*
X028283Y003980D01*
X028283Y004048D02*
X032003Y004048D01*
X032003Y004117D02*
X028283Y004117D01*
X028283Y004185D02*
X032003Y004185D01*
X032003Y004254D02*
X028283Y004254D01*
X028283Y004322D02*
X032003Y004322D01*
X032003Y004391D02*
X028283Y004391D01*
X028216Y004459D02*
X032003Y004459D01*
X032003Y004528D02*
X031893Y004528D01*
X031931Y004566D02*
X031931Y006044D01*
X031840Y006135D01*
X031061Y006135D01*
X030971Y006044D01*
X030971Y004566D01*
X031061Y004475D01*
X031840Y004475D01*
X031931Y004566D01*
X031931Y004596D02*
X032003Y004596D01*
X032003Y004665D02*
X031931Y004665D01*
X031931Y004734D02*
X032003Y004734D01*
X032003Y004802D02*
X031931Y004802D01*
X031931Y004871D02*
X032003Y004871D01*
X032003Y004939D02*
X031931Y004939D01*
X031931Y005008D02*
X032003Y005008D01*
X032003Y005076D02*
X031931Y005076D01*
X031931Y005145D02*
X032003Y005145D01*
X032003Y005213D02*
X031931Y005213D01*
X031931Y005282D02*
X032003Y005282D01*
X032003Y005350D02*
X031931Y005350D01*
X031931Y005419D02*
X032003Y005419D01*
X032003Y005487D02*
X031931Y005487D01*
X031931Y005556D02*
X032003Y005556D01*
X032003Y005625D02*
X031931Y005625D01*
X031931Y005693D02*
X032003Y005693D01*
X032003Y005762D02*
X031931Y005762D01*
X031931Y005830D02*
X032003Y005830D01*
X032003Y005899D02*
X031931Y005899D01*
X031931Y005967D02*
X032003Y005967D01*
X032003Y006036D02*
X031931Y006036D01*
X031871Y006104D02*
X032003Y006104D01*
X032003Y006173D02*
X027788Y006173D01*
X027788Y006241D02*
X032003Y006241D01*
X032003Y006310D02*
X027788Y006310D01*
X027788Y006379D02*
X032003Y006379D01*
X032003Y006447D02*
X029954Y006447D01*
X029936Y006429D02*
X030027Y006520D01*
X030027Y006653D01*
X030302Y006928D01*
X030329Y006928D01*
X030440Y006973D01*
X030524Y007058D01*
X030570Y007168D01*
X030570Y007287D01*
X030524Y007398D01*
X030440Y007482D01*
X030329Y007528D01*
X030210Y007528D01*
X030100Y007482D01*
X030015Y007398D01*
X029970Y007287D01*
X029970Y007260D01*
X029942Y007233D01*
X029936Y007239D01*
X028658Y007239D01*
X028567Y007148D01*
X028567Y006520D01*
X028658Y006429D01*
X029936Y006429D01*
X030023Y006516D02*
X032003Y006516D01*
X032003Y006584D02*
X030027Y006584D01*
X030027Y006653D02*
X032003Y006653D01*
X032003Y006721D02*
X030095Y006721D01*
X030164Y006790D02*
X032003Y006790D01*
X032003Y006858D02*
X030233Y006858D01*
X030301Y006927D02*
X032003Y006927D01*
X032003Y006995D02*
X030462Y006995D01*
X030526Y007064D02*
X032003Y007064D01*
X032003Y007133D02*
X030555Y007133D01*
X030570Y007201D02*
X032003Y007201D01*
X032003Y007270D02*
X030570Y007270D01*
X030549Y007338D02*
X032003Y007338D01*
X032003Y007407D02*
X030515Y007407D01*
X030446Y007475D02*
X032003Y007475D01*
X032003Y007544D02*
X028949Y007544D01*
X028881Y007475D02*
X030093Y007475D01*
X030024Y007407D02*
X028812Y007407D01*
X028744Y007338D02*
X029991Y007338D01*
X029970Y007270D02*
X028675Y007270D01*
X028620Y007201D02*
X028607Y007201D01*
X028567Y007133D02*
X028538Y007133D01*
X028567Y007064D02*
X028470Y007064D01*
X028401Y006995D02*
X028567Y006995D01*
X028567Y006927D02*
X028333Y006927D01*
X028264Y006858D02*
X028567Y006858D01*
X028567Y006790D02*
X028204Y006790D01*
X028204Y006721D02*
X028567Y006721D01*
X028567Y006653D02*
X028204Y006653D01*
X028204Y006584D02*
X028567Y006584D01*
X028571Y006516D02*
X028200Y006516D01*
X028132Y006447D02*
X028640Y006447D01*
X027788Y006104D02*
X031031Y006104D01*
X030971Y006036D02*
X027788Y006036D01*
X027788Y005967D02*
X030971Y005967D01*
X030971Y005899D02*
X027788Y005899D01*
X027788Y005830D02*
X030971Y005830D01*
X030971Y005762D02*
X027788Y005762D01*
X027788Y005693D02*
X030971Y005693D01*
X030971Y005625D02*
X028232Y005625D01*
X028283Y005556D02*
X030971Y005556D01*
X030971Y005487D02*
X028283Y005487D01*
X028283Y005419D02*
X030971Y005419D01*
X030971Y005350D02*
X028283Y005350D01*
X028283Y005282D02*
X030971Y005282D01*
X030971Y005213D02*
X028283Y005213D01*
X028283Y005145D02*
X030971Y005145D01*
X030971Y005076D02*
X028283Y005076D01*
X028283Y005008D02*
X030971Y005008D01*
X030971Y004939D02*
X028277Y004939D01*
X028209Y004871D02*
X030971Y004871D01*
X030971Y004802D02*
X026883Y004802D01*
X026883Y004734D02*
X030971Y004734D01*
X030971Y004665D02*
X026883Y004665D01*
X026934Y004596D02*
X030971Y004596D01*
X031009Y004528D02*
X027003Y004528D01*
X026897Y004871D02*
X026883Y004871D01*
X026413Y004871D02*
X026386Y004871D01*
X026409Y005625D02*
X026413Y005625D01*
X026413Y005693D02*
X025365Y005693D01*
X025296Y005762D02*
X026413Y005762D01*
X026413Y005830D02*
X025228Y005830D01*
X025159Y005899D02*
X026413Y005899D01*
X026413Y005967D02*
X025091Y005967D01*
X025022Y006036D02*
X026413Y006036D01*
X026413Y006104D02*
X024057Y006104D01*
X024057Y006173D02*
X026413Y006173D01*
X026413Y006241D02*
X024057Y006241D01*
X024057Y006310D02*
X026413Y006310D01*
X026413Y006379D02*
X024057Y006379D01*
X024057Y006447D02*
X026413Y006447D01*
X026413Y006516D02*
X024057Y006516D01*
X024057Y006584D02*
X026413Y006584D01*
X026413Y006653D02*
X024057Y006653D01*
X024057Y006721D02*
X026413Y006721D01*
X026413Y006790D02*
X024057Y006790D01*
X024057Y006858D02*
X026413Y006858D01*
X026413Y006927D02*
X024057Y006927D01*
X024057Y006995D02*
X026413Y006995D01*
X026413Y007064D02*
X024057Y007064D01*
X024057Y007133D02*
X026413Y007133D01*
X026413Y007201D02*
X024057Y007201D01*
X024057Y007270D02*
X026413Y007270D01*
X026413Y007338D02*
X024057Y007338D01*
X024057Y007407D02*
X026413Y007407D01*
X026413Y007475D02*
X024057Y007475D01*
X024040Y007544D02*
X026413Y007544D01*
X026413Y007612D02*
X023972Y007612D01*
X025115Y007681D02*
X026453Y007681D01*
X026522Y007749D02*
X025819Y007749D01*
X025838Y007818D02*
X026591Y007818D01*
X026659Y007886D02*
X025838Y007886D01*
X025838Y007955D02*
X026728Y007955D01*
X026744Y008024D02*
X025521Y008024D01*
X025521Y008050D02*
X025838Y008050D01*
X025838Y008230D01*
X025828Y008264D01*
X025811Y008295D01*
X025786Y008320D01*
X025755Y008338D01*
X025720Y008347D01*
X025521Y008347D01*
X025521Y008050D01*
X025521Y008092D02*
X025451Y008092D01*
X025451Y008161D02*
X025521Y008161D01*
X025521Y008229D02*
X025451Y008229D01*
X025451Y008298D02*
X025521Y008298D01*
X025808Y008298D02*
X026544Y008298D01*
X026476Y008366D02*
X025098Y008366D01*
X025838Y008229D02*
X026613Y008229D01*
X026681Y008161D02*
X025838Y008161D01*
X025838Y008092D02*
X026744Y008092D01*
X025521Y007955D02*
X025451Y007955D01*
X025451Y007886D02*
X025521Y007886D01*
X025521Y007818D02*
X025451Y007818D01*
X025451Y007749D02*
X025521Y007749D01*
X028237Y009120D02*
X028587Y009120D01*
X028587Y009052D02*
X028305Y009052D01*
X028374Y008983D02*
X028587Y008983D01*
X028591Y008915D02*
X028443Y008915D01*
X028511Y008846D02*
X028631Y008846D01*
X028587Y009231D02*
X029262Y009231D01*
X029262Y009581D01*
X028704Y009581D01*
X028670Y009572D01*
X028639Y009554D01*
X028614Y009529D01*
X028596Y009498D01*
X028587Y009464D01*
X028587Y009231D01*
X028587Y009257D02*
X028204Y009257D01*
X028204Y009189D02*
X029262Y009189D01*
X029262Y009257D02*
X029332Y009257D01*
X029332Y009189D02*
X032841Y009189D01*
X032841Y009257D02*
X030007Y009257D01*
X030007Y009326D02*
X032841Y009326D01*
X032841Y009394D02*
X030007Y009394D01*
X030007Y009463D02*
X032841Y009463D01*
X032841Y009532D02*
X029978Y009532D01*
X029332Y009532D02*
X029262Y009532D01*
X029262Y009463D02*
X029332Y009463D01*
X029332Y009394D02*
X029262Y009394D01*
X029262Y009326D02*
X029332Y009326D01*
X029266Y009737D02*
X032841Y009737D01*
X032841Y009669D02*
X027709Y009669D01*
X027709Y009737D02*
X027730Y009737D01*
X028085Y009737D02*
X028911Y009737D01*
X028617Y009532D02*
X028183Y009532D01*
X028204Y009463D02*
X028587Y009463D01*
X028587Y009394D02*
X028204Y009394D01*
X028204Y009326D02*
X028587Y009326D01*
X028115Y009600D02*
X032841Y009600D01*
X032841Y009806D02*
X029335Y009806D01*
X029368Y009874D02*
X032841Y009874D01*
X032841Y009943D02*
X031888Y009943D01*
X031931Y009986D02*
X031840Y009895D01*
X031061Y009895D01*
X030971Y009986D01*
X030971Y011464D01*
X031061Y011555D01*
X031840Y011555D01*
X031931Y011464D01*
X031931Y009986D01*
X031931Y010011D02*
X032841Y010011D01*
X032841Y010080D02*
X031931Y010080D01*
X031931Y010148D02*
X032841Y010148D01*
X032841Y010217D02*
X031931Y010217D01*
X031931Y010286D02*
X032841Y010286D01*
X032841Y010354D02*
X031931Y010354D01*
X031931Y010423D02*
X032841Y010423D01*
X032841Y010491D02*
X031931Y010491D01*
X031931Y010560D02*
X032841Y010560D01*
X032841Y010628D02*
X031931Y010628D01*
X031931Y010697D02*
X032841Y010697D01*
X032841Y010765D02*
X031931Y010765D01*
X031931Y010834D02*
X032841Y010834D01*
X032841Y010902D02*
X031931Y010902D01*
X031931Y010971D02*
X032841Y010971D01*
X032841Y011039D02*
X031931Y011039D01*
X031931Y011108D02*
X032841Y011108D01*
X032841Y011177D02*
X031931Y011177D01*
X031931Y011245D02*
X032841Y011245D01*
X032841Y011314D02*
X031931Y011314D01*
X031931Y011382D02*
X032841Y011382D01*
X032841Y011451D02*
X031931Y011451D01*
X031876Y011519D02*
X032841Y011519D01*
X032841Y011588D02*
X028233Y011588D01*
X028283Y011656D02*
X032841Y011656D01*
X032841Y011725D02*
X028283Y011725D01*
X028283Y011793D02*
X032841Y011793D01*
X032841Y011862D02*
X028283Y011862D01*
X028283Y011931D02*
X032841Y011931D01*
X032841Y011999D02*
X028283Y011999D01*
X028283Y012068D02*
X032841Y012068D01*
X032841Y012136D02*
X028283Y012136D01*
X028283Y012205D02*
X032841Y012205D01*
X032841Y012273D02*
X028276Y012273D01*
X028208Y012342D02*
X032841Y012342D01*
X032841Y012410D02*
X026729Y012410D01*
X026661Y012342D02*
X026899Y012342D01*
X026830Y012273D02*
X026592Y012273D01*
X026524Y012205D02*
X026823Y012205D01*
X026823Y012136D02*
X026460Y012136D01*
X026460Y012141D02*
X027047Y012728D01*
X028192Y012728D01*
X028283Y012819D01*
X028283Y013447D01*
X028192Y013538D01*
X026914Y013538D01*
X026823Y013447D01*
X026823Y013169D01*
X026012Y012357D01*
X025091Y012357D01*
X025000Y012266D01*
X025000Y012187D01*
X024947Y012187D01*
X024928Y012206D01*
X024829Y012247D01*
X024928Y012288D01*
X025012Y012373D01*
X025039Y012439D01*
X025516Y012728D01*
X026369Y012728D01*
X026460Y012819D01*
X026460Y013447D01*
X026369Y013538D01*
X025091Y013538D01*
X025000Y013447D01*
X025000Y012965D01*
X024799Y012843D01*
X024698Y012843D01*
X024588Y012797D01*
X024503Y012713D01*
X024458Y012602D01*
X024458Y012483D01*
X024503Y012373D01*
X024588Y012288D01*
X024687Y012247D01*
X024588Y012206D01*
X024503Y012122D01*
X024458Y012012D01*
X024458Y011892D01*
X024503Y011782D01*
X024588Y011698D01*
X024698Y011652D01*
X024817Y011652D01*
X024928Y011698D01*
X024947Y011717D01*
X025000Y011717D01*
X025000Y011638D01*
X025091Y011547D01*
X026369Y011547D01*
X026460Y011638D01*
X026460Y012141D01*
X026460Y012068D02*
X026823Y012068D01*
X026823Y011999D02*
X026460Y011999D01*
X026460Y011931D02*
X026766Y011931D01*
X026698Y011862D02*
X026460Y011862D01*
X026460Y011793D02*
X026629Y011793D01*
X026561Y011725D02*
X026460Y011725D01*
X026460Y011656D02*
X026492Y011656D01*
X026423Y011588D02*
X026410Y011588D01*
X026413Y011519D02*
X022187Y011519D01*
X022187Y011451D02*
X026413Y011451D01*
X026951Y011451D02*
X030971Y011451D01*
X031026Y011519D02*
X027019Y011519D01*
X026883Y011245D02*
X030971Y011245D01*
X030971Y011177D02*
X026883Y011177D01*
X026413Y011177D02*
X022187Y011177D01*
X022187Y011245D02*
X026413Y011245D01*
X026409Y011108D02*
X026413Y011108D01*
X025765Y011108D02*
X025695Y011108D01*
X025695Y011156D02*
X025137Y011156D01*
X025103Y011147D01*
X025072Y011129D01*
X025047Y011104D01*
X025029Y011073D01*
X025020Y011039D01*
X025020Y010806D01*
X025695Y010806D01*
X025695Y011156D01*
X025695Y011039D02*
X025765Y011039D01*
X025765Y010971D02*
X025695Y010971D01*
X025695Y010902D02*
X025765Y010902D01*
X025765Y010834D02*
X025695Y010834D01*
X025695Y010765D02*
X022187Y010765D01*
X022187Y010697D02*
X025020Y010697D01*
X025020Y010628D02*
X022187Y010628D01*
X022187Y010560D02*
X025020Y010560D01*
X025023Y010491D02*
X022187Y010491D01*
X022187Y010423D02*
X025063Y010423D01*
X025695Y010423D02*
X025765Y010423D01*
X025765Y010491D02*
X025695Y010491D01*
X025695Y010560D02*
X025765Y010560D01*
X025765Y010628D02*
X025695Y010628D01*
X025695Y010697D02*
X025765Y010697D01*
X026398Y010423D02*
X026413Y010423D01*
X026413Y010354D02*
X022187Y010354D01*
X022187Y010286D02*
X026413Y010286D01*
X026413Y010217D02*
X022187Y010217D01*
X022187Y010148D02*
X026413Y010148D01*
X026413Y010080D02*
X022187Y010080D01*
X022187Y010834D02*
X025020Y010834D01*
X025020Y010902D02*
X022187Y010902D01*
X022187Y010971D02*
X025020Y010971D01*
X025020Y011039D02*
X022187Y011039D01*
X022187Y011108D02*
X025051Y011108D01*
X025050Y011588D02*
X022187Y011588D01*
X022187Y011656D02*
X024688Y011656D01*
X024828Y011656D02*
X025000Y011656D01*
X024561Y011725D02*
X022187Y011725D01*
X022187Y011793D02*
X024499Y011793D01*
X024470Y011862D02*
X022187Y011862D01*
X022187Y011931D02*
X024458Y011931D01*
X024458Y011999D02*
X022187Y011999D01*
X022187Y012068D02*
X024481Y012068D01*
X024518Y012136D02*
X022187Y012136D01*
X022187Y012205D02*
X024586Y012205D01*
X024624Y012273D02*
X022187Y012273D01*
X022187Y012342D02*
X024534Y012342D01*
X024488Y012410D02*
X022187Y012410D01*
X022187Y012479D02*
X024459Y012479D01*
X024458Y012547D02*
X022187Y012547D01*
X022187Y012616D02*
X024463Y012616D01*
X024492Y012685D02*
X022187Y012685D01*
X022187Y012753D02*
X024544Y012753D01*
X024647Y012822D02*
X022187Y012822D01*
X022187Y012890D02*
X024877Y012890D01*
X024990Y012959D02*
X022187Y012959D01*
X022187Y013027D02*
X025000Y013027D01*
X025000Y013096D02*
X022187Y013096D01*
X022187Y013164D02*
X025000Y013164D01*
X025000Y013233D02*
X022187Y013233D01*
X022187Y013301D02*
X025000Y013301D01*
X025000Y013370D02*
X022187Y013370D01*
X022187Y013439D02*
X025000Y013439D01*
X025060Y013507D02*
X022187Y013507D01*
X022187Y013576D02*
X032841Y013576D01*
X032841Y013644D02*
X022187Y013644D01*
X022187Y013713D02*
X032841Y013713D01*
X032841Y013781D02*
X022187Y013781D01*
X022187Y013850D02*
X023170Y013850D01*
X023187Y013832D02*
X023097Y013923D01*
X023097Y015401D01*
X023187Y015492D01*
X023966Y015492D01*
X024057Y015401D01*
X024057Y013923D01*
X023966Y013832D01*
X023187Y013832D01*
X023101Y013918D02*
X022187Y013918D01*
X022187Y013987D02*
X023097Y013987D01*
X023097Y014055D02*
X022187Y014055D01*
X022187Y014124D02*
X023097Y014124D01*
X023097Y014192D02*
X022187Y014192D01*
X022187Y014261D02*
X023097Y014261D01*
X023097Y014330D02*
X022187Y014330D01*
X022187Y014398D02*
X023097Y014398D01*
X023097Y014467D02*
X022187Y014467D01*
X022187Y014535D02*
X023097Y014535D01*
X023097Y014604D02*
X022187Y014604D01*
X022187Y014672D02*
X023097Y014672D01*
X023097Y014741D02*
X022187Y014741D01*
X022187Y014809D02*
X023097Y014809D01*
X023097Y014878D02*
X022187Y014878D01*
X022187Y014946D02*
X023097Y014946D01*
X023097Y015015D02*
X022187Y015015D01*
X022187Y015084D02*
X023097Y015084D01*
X023097Y015152D02*
X022187Y015152D01*
X022187Y015221D02*
X023097Y015221D01*
X023097Y015289D02*
X022187Y015289D01*
X022187Y015358D02*
X023097Y015358D01*
X023122Y015426D02*
X022187Y015426D01*
X022187Y015495D02*
X027129Y015495D01*
X027019Y015449D02*
X027340Y015582D01*
X027688Y015582D01*
X028009Y015449D01*
X028255Y015203D01*
X028388Y014882D01*
X028388Y014534D01*
X028255Y014213D01*
X028009Y013967D01*
X027688Y013834D01*
X027340Y013834D01*
X027019Y013967D01*
X026773Y014213D01*
X026640Y014534D01*
X026640Y014882D01*
X026773Y015203D01*
X027019Y015449D01*
X026996Y015426D02*
X024032Y015426D01*
X024057Y015358D02*
X026927Y015358D01*
X026859Y015289D02*
X024057Y015289D01*
X024057Y015221D02*
X026790Y015221D01*
X026752Y015152D02*
X024057Y015152D01*
X024057Y015084D02*
X026723Y015084D01*
X026695Y015015D02*
X024057Y015015D01*
X024057Y014946D02*
X026666Y014946D01*
X026640Y014878D02*
X024057Y014878D01*
X024057Y014809D02*
X026640Y014809D01*
X026640Y014741D02*
X024057Y014741D01*
X024057Y014672D02*
X026640Y014672D01*
X026640Y014604D02*
X024057Y014604D01*
X024057Y014535D02*
X026640Y014535D01*
X026668Y014467D02*
X024057Y014467D01*
X024057Y014398D02*
X026696Y014398D01*
X026724Y014330D02*
X024057Y014330D01*
X024057Y014261D02*
X026753Y014261D01*
X026793Y014192D02*
X024057Y014192D01*
X024057Y014124D02*
X026862Y014124D01*
X026930Y014055D02*
X024057Y014055D01*
X024057Y013987D02*
X026999Y013987D01*
X027136Y013918D02*
X024052Y013918D01*
X023984Y013850D02*
X027302Y013850D01*
X027725Y013850D02*
X032841Y013850D01*
X032841Y013918D02*
X027891Y013918D01*
X028029Y013987D02*
X032841Y013987D01*
X032841Y014055D02*
X028097Y014055D01*
X028166Y014124D02*
X032841Y014124D01*
X032841Y014192D02*
X028234Y014192D01*
X028274Y014261D02*
X032841Y014261D01*
X032841Y014330D02*
X028303Y014330D01*
X028331Y014398D02*
X032841Y014398D01*
X032841Y014467D02*
X028360Y014467D01*
X028388Y014535D02*
X032841Y014535D01*
X032841Y014604D02*
X028388Y014604D01*
X028388Y014672D02*
X032841Y014672D01*
X032841Y014741D02*
X028388Y014741D01*
X028388Y014809D02*
X032841Y014809D01*
X032841Y014878D02*
X028388Y014878D01*
X028361Y014946D02*
X032841Y014946D01*
X032841Y015015D02*
X028333Y015015D01*
X028304Y015084D02*
X032841Y015084D01*
X032841Y015152D02*
X028276Y015152D01*
X028237Y015221D02*
X032841Y015221D01*
X032841Y015289D02*
X028169Y015289D01*
X028100Y015358D02*
X032841Y015358D01*
X032841Y015426D02*
X028031Y015426D01*
X027898Y015495D02*
X032841Y015495D01*
X032841Y015563D02*
X027733Y015563D01*
X027295Y015563D02*
X022187Y015563D01*
X022187Y015632D02*
X032841Y015632D01*
X032841Y015700D02*
X022187Y015700D01*
X022187Y015704D02*
X032841Y015704D01*
X032841Y000326D01*
X022187Y000326D01*
X022187Y015704D01*
X026401Y013507D02*
X026883Y013507D01*
X026823Y013439D02*
X026460Y013439D01*
X026460Y013370D02*
X026823Y013370D01*
X026823Y013301D02*
X026460Y013301D01*
X026460Y013233D02*
X026823Y013233D01*
X026819Y013164D02*
X026460Y013164D01*
X026460Y013096D02*
X026750Y013096D01*
X026682Y013027D02*
X026460Y013027D01*
X026460Y012959D02*
X026613Y012959D01*
X026545Y012890D02*
X026460Y012890D01*
X026460Y012822D02*
X026476Y012822D01*
X026408Y012753D02*
X026394Y012753D01*
X026339Y012685D02*
X025444Y012685D01*
X025331Y012616D02*
X026270Y012616D01*
X026202Y012547D02*
X025218Y012547D01*
X025105Y012479D02*
X026133Y012479D01*
X026065Y012410D02*
X025028Y012410D01*
X024981Y012342D02*
X025076Y012342D01*
X025007Y012273D02*
X024891Y012273D01*
X024929Y012205D02*
X025000Y012205D01*
X026798Y012479D02*
X032841Y012479D01*
X032841Y012547D02*
X026867Y012547D01*
X026935Y012616D02*
X032841Y012616D01*
X032841Y012685D02*
X027004Y012685D01*
X028217Y012753D02*
X032841Y012753D01*
X032841Y012822D02*
X028283Y012822D01*
X028283Y012890D02*
X032841Y012890D01*
X032841Y012959D02*
X028283Y012959D01*
X028283Y013027D02*
X032841Y013027D01*
X032841Y013096D02*
X028283Y013096D01*
X028283Y013164D02*
X032841Y013164D01*
X032841Y013233D02*
X028283Y013233D01*
X028283Y013301D02*
X032841Y013301D01*
X032841Y013370D02*
X028283Y013370D01*
X028283Y013439D02*
X032841Y013439D01*
X032841Y013507D02*
X028223Y013507D01*
X028260Y011108D02*
X030971Y011108D01*
X030971Y011039D02*
X028283Y011039D01*
X028283Y010971D02*
X030971Y010971D01*
X030971Y010902D02*
X028283Y010902D01*
X028283Y010834D02*
X030971Y010834D01*
X030971Y010765D02*
X028283Y010765D01*
X028283Y010697D02*
X030971Y010697D01*
X030971Y010628D02*
X028283Y010628D01*
X028283Y010560D02*
X030971Y010560D01*
X030971Y010491D02*
X028283Y010491D01*
X028249Y010423D02*
X030971Y010423D01*
X030971Y010354D02*
X027709Y010354D01*
X027709Y010286D02*
X030971Y010286D01*
X030971Y010217D02*
X029279Y010217D01*
X029345Y010148D02*
X030971Y010148D01*
X030971Y010080D02*
X029373Y010080D01*
X029388Y010011D02*
X030971Y010011D01*
X031014Y009943D02*
X029388Y009943D01*
X030007Y009120D02*
X032841Y009120D01*
X032841Y009052D02*
X030007Y009052D01*
X030007Y008983D02*
X032841Y008983D01*
X032841Y008915D02*
X030003Y008915D01*
X029963Y008846D02*
X032841Y008846D01*
X032841Y008778D02*
X031808Y008778D01*
X031876Y008709D02*
X032841Y008709D01*
X032841Y008640D02*
X031945Y008640D01*
X032014Y008572D02*
X032841Y008572D01*
X032841Y008503D02*
X032082Y008503D01*
X032151Y008435D02*
X032841Y008435D01*
X032841Y008366D02*
X032219Y008366D01*
X032288Y008298D02*
X032841Y008298D01*
X032841Y008229D02*
X032356Y008229D01*
X032425Y008161D02*
X032841Y008161D01*
X032841Y008092D02*
X032473Y008092D01*
X032473Y008024D02*
X032841Y008024D01*
X032841Y007955D02*
X032473Y007955D01*
X032473Y007886D02*
X032841Y007886D01*
X032841Y007818D02*
X032473Y007818D01*
X032473Y007749D02*
X032841Y007749D01*
X032841Y007681D02*
X032473Y007681D01*
X032473Y007612D02*
X032841Y007612D01*
X032841Y007544D02*
X032473Y007544D01*
X032473Y007475D02*
X032841Y007475D01*
X032841Y007407D02*
X032473Y007407D01*
X032473Y007338D02*
X032841Y007338D01*
X032841Y007270D02*
X032473Y007270D01*
X032473Y007201D02*
X032841Y007201D01*
X032841Y007133D02*
X032473Y007133D01*
X032473Y007064D02*
X032841Y007064D01*
X032841Y006995D02*
X032473Y006995D01*
X032473Y006927D02*
X032841Y006927D01*
X032841Y006858D02*
X032473Y006858D01*
X032473Y006790D02*
X032841Y006790D01*
X032841Y006721D02*
X032473Y006721D01*
X032473Y006653D02*
X032841Y006653D01*
X032841Y006584D02*
X032473Y006584D01*
X032473Y006516D02*
X032841Y006516D01*
X032841Y006447D02*
X032473Y006447D01*
X032473Y006379D02*
X032841Y006379D01*
X032841Y006310D02*
X032473Y006310D01*
X032473Y006241D02*
X032841Y006241D01*
X032841Y006173D02*
X032473Y006173D01*
X032473Y006104D02*
X032841Y006104D01*
X032841Y006036D02*
X032473Y006036D01*
X032473Y005967D02*
X032841Y005967D01*
X032841Y005899D02*
X032473Y005899D01*
X032473Y005830D02*
X032841Y005830D01*
X032841Y005762D02*
X032473Y005762D01*
X032473Y005693D02*
X032841Y005693D01*
X032841Y005625D02*
X032473Y005625D01*
X032473Y005556D02*
X032841Y005556D01*
X032841Y005487D02*
X032473Y005487D01*
X032473Y005419D02*
X032841Y005419D01*
X032841Y005350D02*
X032473Y005350D01*
X032473Y005282D02*
X032841Y005282D01*
X032841Y005213D02*
X032473Y005213D01*
X032473Y005145D02*
X032841Y005145D01*
X032841Y005076D02*
X032473Y005076D01*
X032473Y005008D02*
X032841Y005008D01*
X032841Y004939D02*
X032473Y004939D01*
X032473Y004871D02*
X032841Y004871D01*
X032841Y004802D02*
X032473Y004802D01*
X032473Y004734D02*
X032841Y004734D01*
X032841Y004665D02*
X032473Y004665D01*
X032473Y004596D02*
X032841Y004596D01*
X032841Y004528D02*
X032473Y004528D01*
X032473Y004459D02*
X032841Y004459D01*
X032841Y004391D02*
X032473Y004391D01*
X032473Y004322D02*
X032841Y004322D01*
X032841Y004254D02*
X032473Y004254D01*
X032473Y004185D02*
X032841Y004185D01*
X032841Y004117D02*
X032473Y004117D01*
X032473Y004048D02*
X032841Y004048D01*
X032841Y003980D02*
X032473Y003980D01*
X032473Y003911D02*
X032841Y003911D01*
X032841Y003842D02*
X032473Y003842D01*
X032473Y003774D02*
X032841Y003774D01*
X032841Y003705D02*
X032473Y003705D01*
X032473Y003637D02*
X032841Y003637D01*
X032841Y003568D02*
X032454Y003568D01*
X032386Y003500D02*
X032841Y003500D01*
X032841Y003431D02*
X032317Y003431D01*
X032249Y003363D02*
X032841Y003363D01*
X032841Y003294D02*
X032180Y003294D01*
X032112Y003226D02*
X032841Y003226D01*
X032841Y003157D02*
X032043Y003157D01*
X031974Y003088D02*
X032841Y003088D01*
X032841Y003020D02*
X031906Y003020D01*
X031837Y002951D02*
X032841Y002951D01*
X032841Y002883D02*
X031769Y002883D01*
X031700Y002814D02*
X032841Y002814D01*
X032841Y002746D02*
X031632Y002746D01*
X031563Y002677D02*
X032841Y002677D01*
X032841Y002609D02*
X028283Y002609D01*
X028240Y002540D02*
X032841Y002540D01*
X032841Y002472D02*
X022187Y002472D01*
X022187Y002540D02*
X025071Y002540D01*
X025026Y002609D02*
X022187Y002609D01*
X022187Y002677D02*
X025020Y002677D01*
X025020Y002746D02*
X022187Y002746D01*
X022187Y002814D02*
X025020Y002814D01*
X024057Y002107D02*
X023966Y002198D01*
X023187Y002198D01*
X023097Y002107D01*
X023097Y000629D01*
X023187Y000538D01*
X023966Y000538D01*
X024057Y000629D01*
X024057Y002107D01*
X024035Y002129D02*
X027177Y002129D01*
X027019Y002063D02*
X027340Y002196D01*
X027688Y002196D01*
X028009Y002063D01*
X028255Y001817D01*
X028388Y001496D01*
X028388Y001148D01*
X028255Y000827D01*
X028009Y000581D01*
X027688Y000448D01*
X027340Y000448D01*
X027019Y000581D01*
X026773Y000827D01*
X026640Y001148D01*
X026640Y001496D01*
X026773Y001817D01*
X027019Y002063D01*
X027016Y002060D02*
X024057Y002060D01*
X024057Y001992D02*
X026947Y001992D01*
X026879Y001923D02*
X024057Y001923D01*
X024057Y001855D02*
X026810Y001855D01*
X026760Y001786D02*
X024057Y001786D01*
X024057Y001718D02*
X026731Y001718D01*
X026703Y001649D02*
X024057Y001649D01*
X024057Y001581D02*
X026675Y001581D01*
X026646Y001512D02*
X024057Y001512D01*
X024057Y001443D02*
X026640Y001443D01*
X026640Y001375D02*
X024057Y001375D01*
X024057Y001306D02*
X026640Y001306D01*
X026640Y001238D02*
X024057Y001238D01*
X024057Y001169D02*
X026640Y001169D01*
X026659Y001101D02*
X024057Y001101D01*
X024057Y001032D02*
X026688Y001032D01*
X026716Y000964D02*
X024057Y000964D01*
X024057Y000895D02*
X026745Y000895D01*
X026773Y000827D02*
X024057Y000827D01*
X024057Y000758D02*
X026842Y000758D01*
X026910Y000689D02*
X024057Y000689D01*
X024049Y000621D02*
X026979Y000621D01*
X027088Y000552D02*
X023980Y000552D01*
X023173Y000552D02*
X022187Y000552D01*
X022187Y000484D02*
X027254Y000484D01*
X027773Y000484D02*
X032841Y000484D01*
X032841Y000552D02*
X027939Y000552D01*
X028048Y000621D02*
X032841Y000621D01*
X032841Y000689D02*
X028117Y000689D01*
X028185Y000758D02*
X032841Y000758D01*
X032841Y000827D02*
X028254Y000827D01*
X028283Y000895D02*
X032841Y000895D01*
X032841Y000964D02*
X028311Y000964D01*
X028339Y001032D02*
X032841Y001032D01*
X032841Y001101D02*
X028368Y001101D01*
X028388Y001169D02*
X032841Y001169D01*
X032841Y001238D02*
X028388Y001238D01*
X028388Y001306D02*
X032841Y001306D01*
X032841Y001375D02*
X028388Y001375D01*
X028388Y001443D02*
X032841Y001443D01*
X032841Y001512D02*
X028381Y001512D01*
X028353Y001581D02*
X032841Y001581D01*
X032841Y001649D02*
X028324Y001649D01*
X028296Y001718D02*
X032841Y001718D01*
X032841Y001786D02*
X028268Y001786D01*
X028217Y001855D02*
X032841Y001855D01*
X032841Y001923D02*
X028149Y001923D01*
X028080Y001992D02*
X032841Y001992D01*
X032841Y002060D02*
X028012Y002060D01*
X027850Y002129D02*
X032841Y002129D01*
X032841Y002197D02*
X023967Y002197D01*
X023187Y002197D02*
X022187Y002197D01*
X022187Y002129D02*
X023118Y002129D01*
X023097Y002060D02*
X022187Y002060D01*
X022187Y001992D02*
X023097Y001992D01*
X023097Y001923D02*
X022187Y001923D01*
X022187Y001855D02*
X023097Y001855D01*
X023097Y001786D02*
X022187Y001786D01*
X022187Y001718D02*
X023097Y001718D01*
X023097Y001649D02*
X022187Y001649D01*
X022187Y001581D02*
X023097Y001581D01*
X023097Y001512D02*
X022187Y001512D01*
X022187Y001443D02*
X023097Y001443D01*
X023097Y001375D02*
X022187Y001375D01*
X022187Y001306D02*
X023097Y001306D01*
X023097Y001238D02*
X022187Y001238D01*
X022187Y001169D02*
X023097Y001169D01*
X023097Y001101D02*
X022187Y001101D01*
X022187Y001032D02*
X023097Y001032D01*
X023097Y000964D02*
X022187Y000964D01*
X022187Y000895D02*
X023097Y000895D01*
X023097Y000827D02*
X022187Y000827D01*
X022187Y000758D02*
X023097Y000758D01*
X023097Y000689D02*
X022187Y000689D01*
X022187Y000621D02*
X023105Y000621D01*
X022187Y000415D02*
X032841Y000415D01*
X032841Y000347D02*
X022187Y000347D01*
X022187Y002266D02*
X032841Y002266D01*
X032841Y002334D02*
X022187Y002334D01*
X022187Y002403D02*
X032841Y002403D01*
X031378Y003157D02*
X028283Y003157D01*
X028269Y003226D02*
X031447Y003226D01*
X031515Y003294D02*
X028200Y003294D01*
X025059Y003705D02*
X022187Y003705D01*
X022187Y003774D02*
X025000Y003774D01*
X025000Y003842D02*
X024946Y003842D01*
X024569Y003842D02*
X022187Y003842D01*
X022187Y003911D02*
X024502Y003911D01*
X024474Y003980D02*
X022187Y003980D01*
X022187Y004048D02*
X024458Y004048D01*
X024458Y004117D02*
X022187Y004117D01*
X022187Y004185D02*
X024477Y004185D01*
X024509Y004254D02*
X022187Y004254D01*
X022187Y004322D02*
X024578Y004322D01*
X024938Y004322D02*
X025000Y004322D01*
X025000Y004391D02*
X022187Y004391D01*
X022187Y004459D02*
X025067Y004459D01*
X024974Y005419D02*
X023767Y005419D01*
X023833Y005487D02*
X024906Y005487D01*
X024837Y005556D02*
X023861Y005556D01*
X023398Y005899D02*
X022187Y005899D01*
X029939Y007612D02*
X032003Y007612D01*
X032003Y007681D02*
X030007Y007681D01*
X030027Y007749D02*
X031308Y007749D01*
X031593Y007749D02*
X032003Y007749D01*
X032003Y007818D02*
X031678Y007818D01*
X031722Y007886D02*
X032003Y007886D01*
X032003Y007918D02*
X031550Y008371D01*
X029986Y008371D01*
X030027Y008329D01*
X030027Y008250D01*
X031261Y008250D01*
X031281Y008269D01*
X031391Y008315D01*
X031510Y008315D01*
X031621Y008269D01*
X031705Y008185D01*
X031751Y008075D01*
X031751Y007955D01*
X031751Y008024D02*
X031897Y008024D01*
X031829Y008092D02*
X031744Y008092D01*
X031760Y008161D02*
X031715Y008161D01*
X031692Y008229D02*
X031661Y008229D01*
X031623Y008298D02*
X031552Y008298D01*
X031555Y008366D02*
X029990Y008366D01*
X030027Y008298D02*
X031349Y008298D01*
X027717Y010217D02*
X027709Y010217D01*
M02*
